# xmcd CD database file
#
# Track frame offsets:
#	150
#	22425
#	40200
#	54975
#	76275
#	94875
#	109200
#	125250
#	142125
#	161550
#
# Disc length: 2572 seconds
#
# Revision: 1
# Processed by: cddbd v1.5.2PL0 Copyright (c) Steve Scherf et al.
# Submitted via: CDex 1.51
#
DISCID=890a0a0a
DTITLE=Mahogany Rush - Strange Universe
DYEAR=1975
DGENRE=Rock
TTITLE0=Tales Of Spanish Warrior
TTITLE1=The King Who Stole (... The Universe)
TTITLE2=Satisfy Your Soul
TTITLE3=Land Of 1000 Nights
TTITLE4=Moonlight Lady
TTITLE5=Dancing Lady
TTITLE6=Once Again
TTITLE7=Tryin' Anyway
TTITLE8=Dear Music
TTITLE9=Strange Universe
EXTD=YEAR: 1975
EXTT0=
EXTT1=
EXTT2=
EXTT3=
EXTT4=
EXTT5=
EXTT6=
EXTT7=
EXTT8=
EXTT9=
PLAYORDER=
